<?xml version="1.0" encoding="utf-8"?>
<!-- Generator: Adobe Illustrator 24.0.1, SVG Export Plug-In . SVG Version: 6.00 Build 0)  -->
<svg version="1.1" id="圖層_1" xmlns="http://www.w3.org/2000/svg" xmlns:xlink="http://www.w3.org/1999/xlink" x="0px" y="0px"
	 viewBox="0 0 866.7 355.8" style="enable-background:new 0 0 866.7 355.8;" xml:space="preserve">
<style type="text/css">
	.st0{fill:#D0D6B5;}
	.st1{fill:#B8CACF;}
	.st2{fill:#75A0B6;}
	.st3{fill:#A9BC7B;}
</style>
<rect class="st0" width="866.7" height="355.8"/>
<path class="st1" d="M0.7,210.5v145.3h635.2c0,0-72.5-16.2-186.7-66.2s-235-113.3-269.2-115C145.8,173,0.7,210.5,0.7,210.5z"/>
<path class="st2" d="M0.7,341.1v14.8h353.5c0,0-101.7-29.5-176.7-29.5C95,326.3,0.7,341.1,0.7,341.1z"/>
<path class="st3" d="M56.7,117.1c0,0,15.8,20,10,57.5c21.7,0,44.2,0,44.2,0s-3.8-51.3,17.5-72.5c0,0-27.6,0.1-44.2,32.5
	C84.2,134.6,73.3,118.8,56.7,117.1z"/>
<path class="st3" d="M443.3,44.6c0,0-15.8,20-10,57.5c-21.7,0-44.2,0-44.2,0s3.8-51.2-17.5-72.5c0,0,27.6,0.1,44.2,32.5
	C415.8,62.1,426.7,46.3,443.3,44.6z"/>
<path class="st3" d="M568.2,195.7c0,0,11.8,14.9,7.5,42.9c16.2,0,33,0,33,0s-2.8-38.3,13.1-54.1c0,0-20.6,0.1-33,24.3
	C588.7,208.8,580.6,197,568.2,195.7z"/>
<path class="st3" d="M710.9,262.9c0,0,25.6,32.3,16.2,92.9c35,0,71.4,0,71.4,0s-6.1-82.8,28.3-117.2c0,0-44.6,0.2-71.4,52.5
	C755.3,291.2,737.8,265.6,710.9,262.9z"/>
</svg>
