<svg xmlns="http://www.w3.org/2000/svg" viewBox="0 0 140.5 93.07">
  <defs>
    <style>
      .cls-1 {
        fill: #00589f;
      }
    </style>
  </defs>
  <title>f-icon-4</title>
  <g id="Layer_2" data-name="Layer 2">
    <g id="Layer_2-2" data-name="Layer 2">
      <path class="cls-1" d="M46.53,93.07a46.21,46.21,0,0,1-17.79-3.52C23,90.77,6,90.84,2.5,90.84A2.5,2.5,0,0,1,.23,87.29C2.68,82,6.12,74,6.93,71a46.54,46.54,0,1,1,39.6,22.09ZM28.94,84.41a2.51,2.51,0,0,1,1,.21A41.54,41.54,0,1,0,11.68,69.12a2.5,2.5,0,0,1,.39,1.65c-.31,2.66-3.56,10.29-5.68,15,8.41-.09,19.39-.46,21.74-1.27A2.5,2.5,0,0,1,28.94,84.41Z"/>
      <path class="cls-1" d="M109,92.57a31.34,31.34,0,0,1-22.3-9.24,2,2,0,0,1,2.83-2.83,27.56,27.56,0,0,0,32.11,5,2,2,0,0,1,1.6-.1c3.57,1.3,8.81,1.77,12.14,1.95-1.37-3.2-3.18-8.2-2.89-11.54a2,2,0,0,1,.27-.84A27.56,27.56,0,0,0,99.38,35.19,2,2,0,0,1,98,31.44a31.55,31.55,0,0,1,38.42,45.12c0,3,2.32,8.89,3.88,12a2,2,0,0,1-1.79,2.89c-.41,0-9.6,0-15.84-2A31.66,31.66,0,0,1,109,92.57Z"/>
      <g>
        <path class="cls-1" d="M57.14,29A15.3,15.3,0,0,0,46.7,25.48c-4.75,0-8.43,1.32-10.93,3.92a14.24,14.24,0,0,0-4,9.43L31.71,40h7.62l.08-1a6.6,6.6,0,0,1,2.06-4.63,7.07,7.07,0,0,1,5-1.69,6.92,6.92,0,0,1,4.9,1.64,5.23,5.23,0,0,1,1.75,4.06,6.19,6.19,0,0,1-1,3.62A11.62,11.62,0,0,1,48.57,45a16,16,0,0,0-5.17,4.55,10.33,10.33,0,0,0-1.71,6v4h7.77V56.47A6.17,6.17,0,0,1,50.34,53a11.76,11.76,0,0,1,3.74-3,16.27,16.27,0,0,0,5.18-4.85,12.4,12.4,0,0,0,2-7A11.59,11.59,0,0,0,57.14,29Z"/>
        <path class="cls-1" d="M46,63a4,4,0,0,0-2.84,6.82h0A3.95,3.95,0,0,0,49.93,67a3.91,3.91,0,0,0-1.11-2.85A3.82,3.82,0,0,0,46,63Z"/>
      </g>
      <g>
        <path class="cls-1" d="M103.87,55.85h8.47V73.54h4v3.4H103.87v-3.4h4V59.25h-4Z"/>
        <circle class="cls-1" cx="110.04" cy="48.89" r="3.12"/>
      </g>
    </g>
  </g>
</svg>
