<svg xmlns="http://www.w3.org/2000/svg" viewBox="0 0 99 130.74">
  <defs>
    <style>
      .cls-1 {
        fill: #00589f;
      }
    </style>
  </defs>
  <title>f-icon-2</title>
  <g id="Layer_2" data-name="Layer 2">
    <g id="Layer_2-2" data-name="Layer 2">
      <path class="cls-1" d="M44.32,41.5A20.75,20.75,0,1,1,65.06,20.75,20.77,20.77,0,0,1,44.32,41.5Zm0-36.5A15.75,15.75,0,1,0,60.06,20.75,15.77,15.77,0,0,0,44.32,5Z"/>
      <path class="cls-1" d="M20.76,130.74c-7.1,0-20.53-4.2-20.53-20.08L0,74.15V66.37C0,54.51,7.55,48,21.25,48H67.38c13.71,0,21.25,6.53,21.25,18.38v9.58a2.5,2.5,0,0,1-5,0V66.37c0-12-9.28-13.38-16.25-13.38H21.25C14.28,53,5,54.37,5,66.37v7.77l.23,36.5c0,6.21,2.51,10.61,7.48,13.09a19.92,19.92,0,0,0,5.56,1.75V74.14a2.5,2.5,0,0,1,5,0v54.1A2.5,2.5,0,0,1,20.76,130.74Z"/>
      <path class="cls-1" d="M74.86,130.74A24.14,24.14,0,1,1,99,106.6,24.17,24.17,0,0,1,74.86,130.74Zm0-43.28A19.14,19.14,0,1,0,94,106.6,19.16,19.16,0,0,0,74.86,87.46Z"/>
      <path class="cls-1" d="M64.94,76.64H48.71a2.5,2.5,0,0,1,0-5H64.94a2.5,2.5,0,0,1,0,5Z"/>
      <path class="cls-1" d="M83,109.1H66.74a2.5,2.5,0,0,1,0-5H83a2.5,2.5,0,0,1,0,5Z"/>
      <path class="cls-1" d="M74.86,117.21a2.5,2.5,0,0,1-2.5-2.5V98.48a2.5,2.5,0,1,1,5,0v16.23A2.5,2.5,0,0,1,74.86,117.21Z"/>
    </g>
  </g>
</svg>
