<svg xmlns="http://www.w3.org/2000/svg" viewBox="0 0 102.62 131.1">
  <defs>
    <style>
      .cls-1 {
        fill: #00589f;
      }
    </style>
  </defs>
  <title>f-icon-3</title>
  <g id="Layer_2" data-name="Layer 2">
    <g id="Layer_2-2" data-name="Layer 2">
      <path class="cls-1" d="M44.32,41.5A20.75,20.75,0,1,1,65.06,20.75,20.77,20.77,0,0,1,44.32,41.5Zm0-36.5A15.75,15.75,0,1,0,60.06,20.75,15.77,15.77,0,0,0,44.32,5Z"/>
      <path class="cls-1" d="M20.76,130.74c-7.1,0-20.53-4.2-20.53-20.08L0,74.15V66.37C0,54.51,7.55,48,21.25,48H67.38c13.71,0,21.25,6.53,21.25,18.38v9.58a2.5,2.5,0,0,1-5,0V66.37c0-12-9.28-13.38-16.25-13.38H21.25C14.28,53,5,54.37,5,66.37v7.77l.23,36.5c0,6.21,2.51,10.61,7.48,13.09a19.92,19.92,0,0,0,5.56,1.75V74.14a2.5,2.5,0,0,1,5,0v54.1A2.5,2.5,0,0,1,20.76,130.74Z"/>
      <path class="cls-1" d="M64.94,76.64H48.71a2.5,2.5,0,0,1,0-5H64.94a2.5,2.5,0,0,1,0,5Z"/>
      <path class="cls-1" d="M76,131.1h-.18a2.5,2.5,0,0,1-2.3-1.53c-1.19-2.82-3.48-5.46-7.21-8.31l-1.61-1.21c-5.41-4-14.47-10.72-15.36-19.17-.6-5.69.8-10.74,3.94-14.22a14,14,0,0,1,10.55-4.53,16.66,16.66,0,0,1,12.1,5.3A16.66,16.66,0,0,1,88,82.13a14,14,0,0,1,10.55,4.53c3.14,3.48,4.54,8.54,3.94,14.22-.89,8.44-9.95,15.16-15.36,19.17l-1.61,1.21c-3.73,2.85-6,5.49-7.21,8.31A2.5,2.5,0,0,1,76,131.1Zm-12.19-44A8.91,8.91,0,0,0,57,90c-2.18,2.42-3.13,6.09-2.68,10.36.66,6.26,8.61,12.15,13.36,15.67l1.67,1.25a31.87,31.87,0,0,1,6.58,6.46,31.9,31.9,0,0,1,6.58-6.46L84.15,116c4.75-3.52,12.71-9.42,13.36-15.67C98,96.1,97,92.42,94.83,90A8.91,8.91,0,0,0,88,87.13a12.2,12.2,0,0,0-9.86,5.45A2.5,2.5,0,0,1,76,93.8h-.18a2.5,2.5,0,0,1-2.14-1.21A12.17,12.17,0,0,0,63.81,87.13Z"/>
    </g>
  </g>
</svg>
