<svg xmlns="http://www.w3.org/2000/svg" viewBox="0 0 95.16 102.5">
  <defs>
    <style>
      .cls-1 {
        fill: #00589f;
      }
    </style>
  </defs>
  <title>f-icon-5</title>
  <g id="Layer_2" data-name="Layer 2">
    <g id="Layer_2-2" data-name="Layer 2">
      <path class="cls-1" d="M65.25,102.5A39.92,39.92,0,0,1,43.92,96c-6.35-4.1-15.1-12.18-22.85-21.11h0l-.3-.35c-7.6-9.07-14.2-19-17.24-25.91-4.76-10.81-4.7-23,.16-31.73C6.9,11.05,16.31,3.64,19.12,1.51a7.41,7.41,0,0,1,11,2.3l10.09,18.1a8.5,8.5,0,0,1-2.85,11.26c-8.54,5.49-9.63,7.53-9.53,8.25.61,4.1,4.74,11.21,10.53,18.13l.29.33c5.9,6.79,12.27,12,16.22,13.24.69.22,2.89-.53,9.66-8.1A8.49,8.49,0,0,1,76,64L92.33,76.82A7.41,7.41,0,0,1,92.87,88c-2.55,2.44-11.36,10.56-17.59,12.81A29.51,29.51,0,0,1,65.25,102.5ZM24.1,72.24c7.52,8.65,15.94,16.45,22,20.36,8.89,5.74,19.56,7.45,27.83,4.46,4.37-1.58,11.45-7.42,16.19-11.95a3.35,3.35,0,0,0,1-2.62A3.42,3.42,0,0,0,89.85,80L73.58,67.14a4.49,4.49,0,0,0-6.11.56c-4.81,5.37-9.83,10.51-13.84,9.25-4.75-1.5-11.49-6.9-18-14.45l-.31-.36C28.84,54.45,24.57,46.94,23.84,42c-.62-4.16,5.25-8.31,11.32-12.21a4.49,4.49,0,0,0,1.51-5.95L26.58,5.76a3.42,3.42,0,0,0-2.29-1.68,3.36,3.36,0,0,0-2.75.62c-5.21,4-12.1,10-14.35,14.1C2.92,26.48,2.92,37.28,7.19,47c2.9,6.59,9.28,16.15,16.63,24.94Z"/>
    </g>
  </g>
</svg>
