<svg xmlns="http://www.w3.org/2000/svg" viewBox="0 0 130 69.19">
  <defs>
    <style>
      .cls-1 {
        fill: #00589f;
      }
    </style>
  </defs>
  <title>f-icon-1</title>
  <g id="Layer_2" data-name="Layer 2">
    <g id="Layer_2-2" data-name="Layer 2">
      <path class="cls-1" d="M127.5,69H2.5a2.5,2.5,0,0,1,0-5h125a2.5,2.5,0,0,1,0,5Z"/>
      <path class="cls-1" d="M119.28,69a2.5,2.5,0,0,1-2.5-2.5V5H13.22V66.53a2.5,2.5,0,1,1-5,0V2.5A2.5,2.5,0,0,1,10.72,0H119.28a2.5,2.5,0,0,1,2.5,2.5v64A2.5,2.5,0,0,1,119.28,69Z"/>
      <path class="cls-1" d="M94.61,66a2.5,2.5,0,0,1-2.5-2.5V36.56H37.89V63.47a2.5,2.5,0,0,1-5,0V34.06a2.5,2.5,0,0,1,2.5-2.5H94.61a2.5,2.5,0,0,1,2.5,2.5V63.47A2.5,2.5,0,0,1,94.61,66Z"/>
      <path class="cls-1" d="M64.08,69.19a2.5,2.5,0,0,1-2.5-2.5V34.52a2.5,2.5,0,0,1,5,0V66.69A2.5,2.5,0,0,1,64.08,69.19Z"/>
    </g>
  </g>
</svg>
